<svg class="svg-icon icon-pinterest" xmlns="http://www.w3.org/2000/svg" width="32" height="32" viewBox="0 0 32 32" fill="currentColor">
  <path fill="currentColor" fill-rule="evenodd" d="M16 0C7.2 0 0 7.2 0 16c0 6.8 4.2 12.6 10.2 15-.2-1.4-.3-3.3 0-4.7l2-8s-.6-1-.6-2.3c0-2.2 1.3-4 3-4 1.3 0 2 1 2 2.3 0 1.4-1 3.5-1.4 5.4-.4 1.6.8 3 2.4 3 2.8 0 5-3 5-7.5 0-3.8-2.7-6.5-6.7-6.5-4.6 0-7.3 3.4-7.3 7 0 1.4.5 2.8 1.2 3.6v.5c0 .5-.4 1.6-.4 1.8 0 .3-.3.4-.6.2-2-1-3.2-3.8-3.2-6.2 0-5 3.7-9.7 10.6-9.7 5.5 0 9.8 4 9.8 9.2 0 5.5-3.5 10-8.3 10-1.7 0-3.2-1-3.8-2l-1 4c-.3 1.3-1.3 3-2 4 1.6.6 3.2.8 4.8.8 8.8 0 16-7.2 16-16S24.8 0 16 0"></path>
</svg>
